<?xml version="1.0" encoding="UTF-8" standalone="no"?>
<!DOCTYPE svg PUBLIC "-//W3C//DTD SVG 1.1//EN" "http://www.w3.org/Graphics/SVG/1.1/DTD/svg11.dtd">
<svg width="100%" height="100%" viewBox="0 0 2481 3508" version="1.1" xmlns="http://www.w3.org/2000/svg" xmlns:xlink="http://www.w3.org/1999/xlink" xml:space="preserve" xmlns:serif="http://www.serif.com/" style="fill-rule:evenodd;clip-rule:evenodd;stroke-linejoin:round;stroke-miterlimit:1.5;">
    <g transform="matrix(1.21287,-0.644388,1.23249,2.3198,-2909.68,-2078.43)">
        <g transform="matrix(0.642993,0.178609,-0.341618,0.336178,1160.87,1218.42)">
            <path d="M1058.72,1195.92L1095.04,1213.44L1059.23,1231.98L1058.72,1195.92Z" style="fill:rgb(134,134,134);"/>
            <path d="M691.952,1000.61C691.952,1148.28 678.317,1181.65 767.689,1199.5C842.038,1214.35 1000.96,1214.48 1066.19,1213.85" style="fill:none;stroke:rgb(134,134,134);stroke-width:3.77px;stroke-dasharray:3.77,3.77;"/>
        </g>
    </g>
    <g transform="matrix(0.343386,0.659034,-2.32962,1.21383,4472.92,-1415.71)">
        <g transform="matrix(0.621806,-0.337601,1.19338,0.175905,-1091.8,1759.09)">
            <path d="M704.055,1712.5L687.243,1746.85L669.856,1712.79L704.055,1712.5Z" style="fill:rgb(152,151,163);"/>
            <path d="M1096.66,1404.12C1007.73,1405.58 906.6,1405.24 824.99,1406.13C759.298,1406.86 697.473,1428.91 690.573,1477.03C689.421,1485.06 686.01,1493.15 685.889,1502.86C685.534,1531.33 686.54,1661.94 687.013,1719.49" style="fill:none;stroke:rgb(152,151,163);stroke-width:3.58px;stroke-dasharray:3.58,3.58;"/>
        </g>
    </g>
    <g transform="matrix(0.436947,-0.601097,2.12481,1.54456,-3357.14,225.201)">
        <g transform="matrix(0.791226,0.307922,-1.08847,0.223833,2901.38,983.331)">
            <path d="M1300.91,2029.84L1335.1,2046.95L1300.9,2064.04L1300.91,2029.84Z" style="fill:rgb(152,151,163);"/>
            <path d="M687.965,1897.4C688.858,2049.11 664.93,2048.25 833.969,2047.07C865.33,2046.85 1207.62,2046.92 1307.74,2046.94" style="fill:none;stroke:rgb(152,151,163);stroke-width:3.58px;stroke-dasharray:3.58,3.58;"/>
        </g>
    </g>
    <g transform="matrix(0.432171,-0.594527,2.12447,1.54431,-3409.65,354.469)">
        <g transform="matrix(0.79997,0.307972,-1.1005,0.223869,3117.71,970.721)">
            <path d="M698.772,2534.02L682.139,2568.45L664.576,2534.49L698.772,2534.02Z" style="fill:rgb(152,151,163);"/>
            <path d="M1340.13,2446.75C1289.72,2446.02 1108.91,2446.64 982.612,2446.39C831.624,2446.09 688.797,2429.79 685.414,2459.92C682.373,2487.01 681.75,2518.91 681.767,2541.09" style="fill:none;stroke:rgb(152,151,163);stroke-width:3.58px;stroke-dasharray:3.58,3.58;"/>
        </g>
    </g>
    <g transform="matrix(0.832892,-4.47927e-17,6.80177e-16,2.42016,-314.182,-3481.75)">
        <g transform="matrix(1.20064,2.22215e-17,-3.37434e-16,0.413195,377.219,1438.64)">
            <path d="M708.102,840.033L690.07,876.098L672.037,840.033L708.102,840.033Z" style="fill:rgb(134,134,134);"/>
            <path d="M690.07,560.735L690.07,847.246" style="fill:none;stroke:rgb(134,134,134);stroke-width:3.77px;stroke-dasharray:3.77,3.77;"/>
        </g>
    </g>
    <g transform="matrix(1.00596,0,0,0.672263,207.486,1633.67)">
        <rect x="163.289" y="171.027" width="604.434" height="219.794" style="fill:rgb(235,235,235);"/>
    </g>
    <g transform="matrix(1.00596,0,0,0.749737,209.538,2443.33)">
        <rect x="163.289" y="171.027" width="604.434" height="219.794" style="fill:rgb(235,235,235);"/>
    </g>
    <g transform="matrix(1.00596,0,0,0.672263,216.836,2878.98)">
        <rect x="163.289" y="171.027" width="604.434" height="219.794" style="fill:rgb(235,235,235);"/>
    </g>
    <g transform="matrix(0.832892,0,0,0.945982,193.707,-124.651)">
        <g transform="matrix(1.20064,-0,-0,1.0571,-232.571,131.768)">
            <path d="M702.761,2902.18L684.739,2935.9L668.574,2901.25L702.761,2902.18Z" style="fill:rgb(152,151,163);"/>
            <path d="M685.785,2809.95C685.785,2859.84 685.652,2890.18 685.482,2908.55" style="fill:none;stroke:rgb(152,151,163);stroke-width:3.58px;stroke-dasharray:3.58,3.58;"/>
        </g>
    </g>
    <g transform="matrix(1.00596,0,0,0.672263,214.507,298.482)">
        <rect x="163.289" y="171.027" width="604.434" height="219.794" style="fill:rgb(235,235,235);"/>
    </g>
    <g transform="matrix(0.832892,0,0,0.832892,30.3271,331.462)">
        <text x="296.736px" y="519.558px" style="font-family:'LinBiolinum', 'Linux Biolinum';font-size:50px;stroke:black;stroke-width:1.2px;stroke-miterlimit:2;stroke-dasharray:1.2,1.2;">1</text>
    </g>
    <g transform="matrix(0.832892,0,0,0.832892,16.8343,1331.51)">
        <text x="296.736px" y="519.558px" style="font-family:'LinBiolinum', 'Linux Biolinum';font-size:50px;stroke:black;stroke-width:1.2px;stroke-miterlimit:2;stroke-dasharray:1.2,1.2;">2</text>
    </g>
    <g transform="matrix(0.832892,0,0,0.832892,18.0845,2119.67)">
        <text x="296.736px" y="519.558px" style="font-family:'LinBiolinum', 'Linux Biolinum';font-size:50px;stroke:black;stroke-width:1.2px;stroke-miterlimit:2;stroke-dasharray:1.2,1.2;">3</text>
    </g>
    <g transform="matrix(0.832892,0,0,0.832892,16.5687,2618.54)">
        <text x="296.736px" y="519.558px" style="font-family:'LinBiolinum', 'Linux Biolinum';font-size:50px;stroke:black;stroke-width:1.2px;stroke-miterlimit:2;stroke-dasharray:1.2,1.2;">4</text>
    </g>
    <g transform="matrix(0.726888,0,0,0.553279,350.301,539.817)">
        <rect x="163.289" y="171.027" width="604.434" height="219.794" style="fill:rgb(239,241,255);"/>
    </g>
    <g transform="matrix(0.726888,0,0,0.553279,350.301,1070.7)">
        <rect x="163.289" y="171.027" width="604.434" height="219.794" style="fill:rgb(239,241,255);"/>
    </g>
    <g transform="matrix(1.00596,0,0,0.672263,214.507,761.374)">
        <rect x="163.289" y="171.027" width="604.434" height="219.794" style="fill:rgb(235,235,235);"/>
    </g>
    <g transform="matrix(1.57276,0,0,0.630618,888.635,307.741)">
        <rect x="163.289" y="171.027" width="604.434" height="219.794" style="fill:rgb(214,235,235);"/>
    </g>
    <g transform="matrix(1.1455,0,0,0.630618,1208.26,1689.05)">
        <rect x="163.289" y="171.027" width="604.434" height="219.794" style="fill:rgb(255,235,180);"/>
    </g>
    <g transform="matrix(0.832892,0,0,0.832892,1132.36,57.3922)">
        <text x="335.856px" y="519.558px" style="font-family:'LinBiolinum', 'Linux Biolinum';font-size:35.019px;fill:rgb(36,36,36);">Building T<tspan x="483.54px 501.049px 519.601px " y="519.558px 519.558px 519.558px ">opo</tspan>logy Ontology (BO<tspan x="809.667px " y="519.558px ">T</tspan>)</text>
    </g>
    <g transform="matrix(0.832892,0,0,0.832892,1251.46,1438.7)">
        <text x="217.268px" y="519.558px" style="font-family:'LinBiolinum', 'Linux Biolinum';font-size:50px;fill:rgb(36,36,36);">T<tspan x="243.244px " y="519.558px ">r</tspan>anslatational Emb<tspan x="633.406px 656.379px " y="519.558px 519.558px ">ed</tspan>dings Mo<tspan x="876.13px " y="519.558px ">d</tspan>els</text>
        <text x="244.16px" y="569.558px" style="font-family:'LinBiolinum', 'Linux Biolinum';font-size:50px;fill:rgb(36,36,36);">(T<tspan x="285.127px " y="569.558px ">r</tspan>ansE, T<tspan x="449.995px " y="569.558px ">r</tspan>ansH, T<tspan x="624.262px " y="569.558px ">r</tspan>ansR, T<tspan x="792.231px " y="569.558px ">r</tspan>ansD<tspan x="915.766px " y="569.558px ">)</tspan></text>
    </g>
    <g transform="matrix(0.832892,0,0,0.832892,179.237,1400.62)">
        <text x="295.344px" y="519.558px" style="font-family:'LinBiolinum', 'Linux Biolinum';font-size:50px;fill:rgb(36,36,36);">Linke<tspan x="409.114px " y="519.558px ">d</tspan> Building Data Mo<tspan x="817.854px " y="519.558px ">d</tspan>el</text>
    </g>
    <g transform="matrix(0.832892,0,0,0.832892,194.262,2627.81)">
        <text x="351.985px" y="519.558px" style="font-family:'LinBiolinum', 'Linux Biolinum';font-size:50px;fill:rgb(36,36,36);">T<tspan x="377.961px " y="519.558px ">r</tspan>aine<tspan x="482.649px " y="519.558px ">d</tspan> H<tspan x="559.114px 585.066px 614.802px " y="519.558px 519.558px 519.558px ">VAC</tspan> thermal</text>
        <text x="450.788px" y="569.558px" style="font-family:'LinBiolinum', 'Linux Biolinum';font-size:50px;fill:rgb(36,36,36);">contr<tspan x="558.503px " y="569.558px ">o</tspan>l agent</text>
    </g>
    <g transform="matrix(0.832892,0,0,0.832892,1116.08,2633.91)">
        <text x="172.053px" y="519.558px" style="font-family:'LinBiolinum', 'Linux Biolinum';font-size:50px;fill:rgb(36,36,36);">Pr<tspan x="217.341px 242.683px " y="519.558px 519.558px ">oo</tspan>f of Concept W<tspan x="578.083px " y="519.558px ">e</tspan>b-base<tspan x="734.553px " y="519.558px ">d</tspan> application</text>
        <text x="409.992px" y="569.558px" style="font-family:'LinBiolinum', 'Linux Biolinum';font-size:50px;fill:rgb(36,36,36);">with scalable API</text>
    </g>
    <g transform="matrix(0.832892,0,0,0.832892,204.68,505.311)">
        <text x="259.211px" y="519.558px" style="font-family:'LinBiolinum', 'Linux Biolinum';font-size:50px;fill:rgb(36,36,36);">Construction Op<tspan x="605.72px " y="519.558px ">e</tspan>rations Mo<tspan x="853.987px " y="519.558px ">d</tspan>el</text>
        <text x="425.434px" y="569.558px" style="font-family:'LinBiolinum', 'Linux Biolinum';font-size:50px;fill:rgb(36,36,36);">Vie<tspan x="492.256px " y="569.558px ">w</tspan> Definition</text>
    </g>
    <g transform="matrix(0.832892,0,0,0.832892,192.5,64.2571)">
        <text x="255.72px" y="519.558px" style="font-family:'LinBiolinum', 'Linux Biolinum';font-size:50px;fill:rgb(36,36,36);">IFC Building Information Mo<tspan x="857.478px " y="519.558px ">d</tspan>el</text>
    </g>
    <g transform="matrix(1.57276,0,0,0.630618,888.635,509.113)">
        <rect x="163.289" y="171.027" width="604.434" height="219.794" style="fill:rgb(214,235,235);"/>
    </g>
    <g transform="matrix(1.1455,0,0,0.630618,1208.26,1890.42)">
        <rect x="163.289" y="171.027" width="604.434" height="219.794" style="fill:rgb(255,235,180);"/>
    </g>
    <g transform="matrix(1.57276,0,0,0.630618,888.635,720.945)">
        <rect x="163.289" y="171.027" width="604.434" height="219.794" style="fill:rgb(214,235,235);"/>
    </g>
    <g transform="matrix(1.1455,0,0,0.630618,1208.26,2102.25)">
        <rect x="163.289" y="171.027" width="604.434" height="219.794" style="fill:rgb(255,235,180);"/>
    </g>
    <g transform="matrix(1.57276,0,0,0.630618,888.635,928.854)">
        <rect x="163.289" y="171.027" width="604.434" height="219.794" style="fill:rgb(214,235,235);"/>
    </g>
    <g transform="matrix(1.1455,0,0,0.630618,1208.26,2310.16)">
        <rect x="163.289" y="171.027" width="604.434" height="219.794" style="fill:rgb(255,235,180);"/>
    </g>
    <g transform="matrix(1.42565,0,0,0.630618,963.653,1132.84)">
        <rect x="163.289" y="171.027" width="604.434" height="219.794" style="fill:rgb(235,235,235);"/>
    </g>
    <g transform="matrix(0.832892,0,0,0.832892,1137.59,240.457)">
        <text x="256.904px" y="519.558px" style="font-family:'LinBiolinum', 'Linux Biolinum';font-size:50px;fill:rgb(36,36,36);">Semantic Sensor Netw<tspan x="721.162px " y="519.558px ">o</tspan>rk (SSN)</text>
    </g>
    <g transform="matrix(0.832892,0,0,0.832892,1256.69,1621.77)">
        <text x="306.074px" y="519.558px" style="font-family:'LinBiolinum', 'Linux Biolinum';font-size:50px;fill:rgb(36,36,36);">Bilinear and T<tspan x="593.086px " y="519.558px ">e</tspan>nsor Mo<tspan x="787.324px " y="519.558px ">d</tspan>els</text>
    </g>
    <g transform="matrix(0.832892,0,0,0.832892,1137.59,291.453)">
        <text x="113.203px" y="519.558px" style="font-family:'LinBiolinum', 'Linux Biolinum';font-size:50px;fill:rgb(36,36,36);">Sensor<tspan x="247.651px " y="519.558px ">,</tspan> Obser<tspan x="394.306px " y="519.558px ">v</tspan>ation, Sample<tspan x="697.407px " y="519.558px ">,</tspan> A<tspan x="751.728px " y="519.558px ">c</tspan>tuator (SOSA<tspan x="1046.72px " y="519.558px ">)</tspan></text>
    </g>
    <g transform="matrix(0.832892,0,0,0.832892,1256.69,1672.76)">
        <text x="295.515px" y="519.558px" style="font-family:'LinBiolinum', 'Linux Biolinum';font-size:50px;fill:rgb(36,36,36);">(DISTMULT<tspan x="541.413px " y="519.558px ">,</tspan> HoIE, RESCAL)</text>
    </g>
    <g transform="matrix(0.832892,0,0,0.832892,1132.36,470.595)">
        <text x="90.339px" y="519.558px" style="font-family:'LinBiolinum', 'Linux Biolinum';font-size:50px;fill:rgb(36,36,36);">Smart Energy A<tspan x="412.361px " y="519.558px ">w</tspan>ar<tspan x="489.851px " y="519.558px ">e</tspan> Refer<tspan x="633.283px " y="519.558px ">e</tspan>nce Ontology (SEAS)</text>
    </g>
    <g transform="matrix(0.832892,0,0,0.832892,1251.46,1843.73)">
        <text x="339.961px" y="519.558px" style="font-family:'LinBiolinum', 'Linux Biolinum';font-size:50px;fill:rgb(36,36,36);">Neural Netw<tspan x="603.413px " y="519.558px ">o</tspan>rk Mo<tspan x="753.437px " y="519.558px ">d</tspan>els</text>
        <text x="407.551px" y="569.558px" style="font-family:'LinBiolinum', 'Linux Biolinum';font-size:50px;fill:rgb(36,36,36);">(<tspan x="422.053px " y="569.558px ">C</tspan>onvE, ConvKB)</text>
    </g>
    <g transform="matrix(0.832892,0,0,0.832892,1132.36,678.505)">
        <text x="140.376px" y="519.558px" style="font-family:'LinBiolinum', 'Linux Biolinum';font-size:50px;fill:rgb(36,36,36);">Ontology for Pr<tspan x="462.885px 487.885px 514.375px " y="519.558px 519.558px 519.558px ">ope</tspan>rty Management (<tspan x="910.298px " y="519.558px ">O</tspan>PM)</text>
    </g>
    <g transform="matrix(0.832892,0,0,0.832892,1251.46,2046.74)">
        <text x="342.073px" y="519.558px" style="font-family:'LinBiolinum', 'Linux Biolinum';font-size:50px;fill:rgb(36,36,36);">Comple<tspan x="502.278px " y="519.558px ">x</tspan> V<tspan x="565.046px 588.02px " y="519.558px 519.558px ">ec</tspan>tor Mo<tspan x="751.325px " y="519.558px ">d</tspan>els</text>
        <text x="397.26px" y="569.558px" style="font-family:'LinBiolinum', 'Linux Biolinum';font-size:50px;fill:rgb(36,36,36);">(<tspan x="411.762px " y="569.558px ">C</tspan>omplEx, RotatE)</text>
    </g>
    <g transform="matrix(0.832892,0,0,0.832892,1132.36,882.491)">
        <text x="105.927px" y="519.558px" style="font-family:'LinBiolinum', 'Linux Biolinum';font-size:50px;">Smart Appliances Refer<tspan x="587.812px " y="519.558px ">e</tspan>nce Ontology (SAREF)</text>
    </g>
    <g transform="matrix(1.57276,0,0,0.630618,888.635,1132.84)">
        <rect x="163.289" y="171.027" width="604.434" height="219.794" style="fill:rgb(214,235,235);"/>
    </g>
    <g transform="matrix(1.1455,0,0,0.630618,1208.26,2514.15)">
        <rect x="163.289" y="171.027" width="604.434" height="219.794" style="fill:rgb(255,235,180);"/>
    </g>
    <g transform="matrix(1.57276,0,0,0.630618,888.635,1326.37)">
        <rect x="163.289" y="171.027" width="604.434" height="219.794" style="fill:rgb(214,235,235);"/>
    </g>
    <g transform="matrix(0.832892,0,0,0.832892,1132.36,882.491)">
        <text x="105.927px" y="519.558px" style="font-family:'LinBiolinum', 'Linux Biolinum';font-size:50px;fill:rgb(36,36,36);">Smart Appliances Refer<tspan x="587.812px " y="519.558px ">e</tspan>nce Ontology (SAREF)</text>
    </g>
    <g transform="matrix(0.832892,0,0,0.832892,1251.46,2263.8)">
        <text x="268.098px" y="519.558px" style="font-family:'LinBiolinum', 'Linux Biolinum';font-size:50px;fill:rgb(36,36,36);">Graph Neural Netw<tspan x="675.276px " y="519.558px ">o</tspan>rk Mo<tspan x="825.3px " y="519.558px ">d</tspan>els</text>
    </g>
    <g transform="matrix(0.832892,0,0,0.832892,1134.98,1060.33)">
        <text x="144.172px" y="519.558px" style="font-family:'LinBiolinum', 'Linux Biolinum';font-size:50px;fill:rgb(36,36,36);">Ontology Mo<tspan x="420.075px " y="519.558px ">d</tspan>eling for Intelligent Domotic</text>
        <text x="340.095px" y="569.558px" style="font-family:'LinBiolinum', 'Linux Biolinum';font-size:50px;fill:rgb(36,36,36);">Envir<tspan x="447.346px " y="569.558px ">o</tspan>nments (DogOnt)</text>
    </g>
    <g transform="matrix(0.793991,0,0,0.812495,1049.69,92.9464)">
        <path d="M1370.59,358.923C1370.59,344.468 1358.58,332.733 1343.79,332.733L86.473,332.733C71.681,332.733 59.672,344.468 59.672,358.923L59.672,1845.1C59.672,1859.56 71.681,1871.29 86.473,1871.29L1343.79,1871.29C1358.58,1871.29 1370.59,1859.56 1370.59,1845.1L1370.59,358.923Z" style="fill:none;stroke:black;stroke-width:1.24px;"/>
    </g>
    <g transform="matrix(0.54057,0,0,0.630831,290.057,156.661)">
        <path d="M1370.59,355.699C1370.59,343.024 1358.58,332.733 1343.79,332.733L86.473,332.733C71.681,332.733 59.672,343.024 59.672,355.699L59.672,1848.33C59.672,1861 71.681,1871.29 86.473,1871.29L1343.79,1871.29C1358.58,1871.29 1370.59,1861 1370.59,1848.33L1370.59,355.699Z" style="fill:none;stroke:black;stroke-width:1.7px;"/>
    </g>
    <g transform="matrix(0.54057,0,0,0.433784,288.006,1343.23)">
        <path d="M1370.59,364.188C1370.59,346.827 1359.28,332.733 1345.35,332.733L84.913,332.733C70.982,332.733 59.672,346.827 59.672,364.188L59.672,1839.84C59.672,1857.2 70.982,1871.29 84.913,1871.29L1345.35,1871.29C1359.28,1871.29 1370.59,1857.2 1370.59,1839.84L1370.59,364.188Z" style="fill:none;stroke:black;stroke-width:2.04px;"/>
    </g>
    <g transform="matrix(0.605717,0,0,0.692448,1305.88,1514.2)">
        <path d="M1370.59,356.177C1370.59,343.238 1358.58,332.733 1343.79,332.733L86.473,332.733C71.681,332.733 59.672,343.238 59.672,356.177L59.672,1847.85C59.672,1860.79 71.681,1871.29 86.473,1871.29L1343.79,1871.29C1358.58,1871.29 1370.59,1860.79 1370.59,1847.85L1370.59,356.177Z" style="fill:none;stroke:black;stroke-width:1.54px;"/>
    </g>
    <g transform="matrix(0.536892,0,0,0.312972,293.222,2219.86)">
        <path d="M1370.59,364.188C1370.59,346.827 1362.37,332.733 1352.25,332.733L78.008,332.733C67.888,332.733 59.672,346.827 59.672,364.188L59.672,1839.84C59.672,1857.2 67.888,1871.29 78.008,1871.29L1352.25,1871.29C1362.37,1871.29 1370.59,1857.2 1370.59,1839.84L1370.59,364.188Z" style="fill:none;stroke:black;stroke-width:2.28px;"/>
    </g>
    <g transform="matrix(1.37641,0,0,0.16081,241.075,2885.93)">
        <path d="M1370.59,364.188C1370.59,346.827 1368.94,332.733 1366.91,332.733L63.347,332.733C61.319,332.733 59.672,346.827 59.672,364.188L59.672,1839.84C59.672,1857.2 61.319,1871.29 63.347,1871.29L1366.91,1871.29C1368.94,1871.29 1370.59,1857.2 1370.59,1839.84L1370.59,364.188Z" style="fill:none;stroke:black;stroke-width:1.02px;"/>
    </g>
    <g transform="matrix(0.863349,0,0,0.553279,287.837,1435.6)">
        <rect x="163.289" y="171.027" width="604.434" height="219.794" style="fill:rgb(239,241,255);"/>
    </g>
    <g transform="matrix(0.863349,0,0,0.553279,287.837,1887.51)">
        <rect x="163.289" y="171.027" width="604.434" height="219.794" style="fill:rgb(239,241,255);"/>
    </g>
    <g transform="matrix(0.863349,0,0,0.553279,286.193,2290.78)">
        <rect x="163.289" y="171.027" width="604.434" height="219.794" style="fill:rgb(239,241,255);"/>
    </g>
    <g transform="matrix(0.832892,0,0,0.832892,189.354,2193.36)">
        <text x="323.432px" y="519.558px" style="font-family:'LinBiolinum', 'Linux Biolinum';font-size:50px;fill:rgb(36,36,36);">Mo<tspan x="393.061px " y="519.558px ">d</tspan>el-fr<tspan x="504.463px 527.436px " y="519.558px 519.558px ">ee</tspan> r<tspan x="579.927px " y="519.558px ">e</tspan>infor<tspan x="700.532px " y="519.558px ">c</tspan>ement</text>
        <text x="315.901px" y="569.558px" style="font-family:'LinBiolinum', 'Linux Biolinum';font-size:50px;fill:rgb(36,36,36);">learning agent (<tspan x="639.021px 669.856px " y="569.558px 569.558px ">Ad</tspan>vantage</text>
        <text x="292.756px" y="619.558px" style="font-family:'LinBiolinum', 'Linux Biolinum';font-size:50px;fill:rgb(36,36,36);">A<tspan x="323.591px " y="619.558px ">c</tspan>tor Critic Policy Gradient)</text>
    </g>
    <g transform="matrix(1.73758,0,0,0.832891,105.398,1348.94)">
        <rect x="147.377" y="138.134" width="364.23" height="54.006" style="fill:rgb(255,229,216);"/>
    </g>
    <g transform="matrix(1.73758,0,0,0.832891,107.449,2186.87)">
        <rect x="147.377" y="138.134" width="364.23" height="54.006" style="fill:rgb(255,229,216);"/>
    </g>
    <g transform="matrix(0.678798,0,0,0.832891,960.101,2804.01)">
        <rect x="147.377" y="138.134" width="364.23" height="54.006" style="fill:rgb(255,229,216);"/>
    </g>
    <g transform="matrix(1.73758,0,0,0.832891,1170.82,1610.71)">
        <rect x="147.377" y="138.134" width="364.23" height="54.006" style="fill:rgb(255,229,216);"/>
    </g>
    <g transform="matrix(1.73758,0,0,0.832891,107.449,228.376)">
        <rect x="147.377" y="138.134" width="364.23" height="54.006" style="fill:rgb(255,229,216);"/>
    </g>
    <g transform="matrix(1.73758,0,0,0.832891,1039.25,228.376)">
        <rect x="147.377" y="138.134" width="364.23" height="54.006" style="fill:rgb(255,229,216);"/>
    </g>
    <g transform="matrix(0.832892,0,0,0.832892,192.059,1136.05)">
        <text x="391.112px" y="519.558px" style="font-family:'LinBiolinumI', 'Linux Biolinum';font-style:italic;font-size:35.019px;fill:rgb(151,151,143);">Linke<tspan x="467.202px " y="519.558px ">d</tspan> Building Data Mo<tspan x="742.443px " y="519.558px ">d</tspan>el</text>
        <text x="404.543px" y="554.576px" style="font-family:'LinBiolinumI', 'Linux Biolinum';font-style:italic;font-size:35.019px;fill:rgb(151,151,143);">with semantic information</text>
        <text x="346.774px" y="589.595px" style="font-family:'LinBiolinumI', 'Linux Biolinum';font-style:italic;font-size:35.019px;fill:rgb(151,151,143);">r<tspan x="358.641px " y="589.595px ">e</tspan>le<tspan x="397.421px " y="589.595px ">v</tspan>ant for indo<tspan x="576.327px " y="589.595px ">o</tspan>r thermal contr<tspan x="801.861px " y="589.595px ">o</tspan>l</text>
    </g>
    <g transform="matrix(0.832892,0,0,0.832892,196.675,772.435)">
        <text x="417.914px" y="519.558px" style="font-family:'LinBiolinumI', 'Linux Biolinum';font-style:italic;font-size:35.019px;fill:rgb(151,151,143);">Semantic Inje<tspan x="605.865px " y="519.558px ">c</tspan>tion using</text>
        <text x="425.908px" y="554.576px" style="font-family:'LinBiolinumI', 'Linux Biolinum';font-style:italic;font-size:35.019px;fill:rgb(151,151,143);">mo<tspan x="469.63px " y="554.576px ">d</tspan>ular and e<tspan x="626.495px " y="554.576px ">x</tspan>tensible</text>
        <text x="516.489px" y="589.595px" style="font-family:'LinBiolinumI', 'Linux Biolinum';font-style:italic;font-size:35.019px;fill:rgb(151,151,143);">ontologies</text>
    </g>
    <g transform="matrix(0.832892,0,0,0.832892,196.034,244.836)">
        <text x="372.764px" y="519.558px" style="font-family:'LinBiolinumI', 'Linux Biolinum';font-style:italic;font-size:35.019px;fill:rgb(151,151,143);">Extraction of asset information</text>
        <text x="399.815px" y="554.576px" style="font-family:'LinBiolinumI', 'Linux Biolinum';font-style:italic;font-size:35.019px;fill:rgb(151,151,143);">r<tspan x="411.682px " y="554.576px ">e</tspan>le<tspan x="450.462px " y="554.576px ">v</tspan>ant for indo<tspan x="629.368px " y="554.576px ">o</tspan>r thermal</text>
        <text x="538.795px" y="589.595px" style="font-family:'LinBiolinumI', 'Linux Biolinum';font-style:italic;font-size:35.019px;fill:rgb(151,151,143);">contr<tspan x="609.841px " y="589.595px ">o</tspan>l</text>
    </g>
    <g transform="matrix(0.832892,0,0,0.832892,190.392,-60.3114)">
        <text x="273.522px" y="519.558px" style="font-family:'LinBiolinumI', 'Linux Biolinum';font-style:italic;font-size:35.019px;fill:rgb(88,88,88);">Nativ<tspan x="347.014px " y="519.558px ">e</tspan> disparate building contr<tspan x="701.269px " y="519.558px ">o</tspan>l information</text>
    </g>
    <g transform="matrix(0.832892,0,0,0.832892,1128.56,-59.3097)">
        <text x="337.857px" y="519.558px" style="font-family:'LinBiolinumI', 'Linux Biolinum';font-style:italic;font-size:35.019px;fill:rgb(88,88,88);">Mo<tspan x="384.4px " y="519.558px ">d</tspan>ular building contr<tspan x="660.086px " y="519.558px ">o</tspan>l ontologies</text>
    </g>
    <g transform="matrix(0.832892,0,0,0.832892,192.88,1601.72)">
        <text x="382.81px" y="519.558px" style="font-family:'LinBiolinumI', 'Linux Biolinum';font-style:italic;font-size:35.019px;fill:rgb(151,151,143);">Relational learning on Linke<tspan x="774.819px " y="519.558px ">d</tspan></text>
        <text x="341.132px" y="554.576px" style="font-family:'LinBiolinumI', 'Linux Biolinum';font-style:italic;font-size:35.019px;fill:rgb(151,151,143);">Building Data via graph emb<tspan x="740.989px 756.173px " y="554.576px 554.576px ">ed</tspan>ding</text>
    </g>
    <g transform="matrix(0.832892,0,0,0.832892,180.981,1896.71)">
        <text x="340.858px" y="519.558px" style="font-family:'LinBiolinumI', 'Linux Biolinum';font-style:italic;font-size:35.019px;fill:rgb(88,88,88);">LBD-base<tspan x="476.572px " y="519.558px ">d</tspan> Reinfor<tspan x="604.985px " y="519.558px ">c</tspan>ement Learning</text>
    </g>
    <g transform="matrix(0.832892,0,0,0.832892,1254.45,1322.7)">
        <text x="396.626px" y="519.558px" style="font-family:'LinBiolinumI', 'Linux Biolinum';font-style:italic;font-size:35.019px;fill:rgb(88,88,88);">Relational Learning Mo<tspan x="724.121px " y="519.558px ">d</tspan>els</text>
    </g>
    <g transform="matrix(0.832892,0,0,0.832892,197.841,1988.84)">
        <text x="377.86px" y="519.558px" style="font-family:'LinBiolinumI', 'Linux Biolinum';font-style:italic;font-size:35.019px;fill:rgb(151,151,143);">V<tspan x="396.446px 411.63px " y="519.558px 519.558px ">ec</tspan>toral emb<tspan x="558.578px 573.762px " y="519.558px 519.558px ">ed</tspan>dings enco<tspan x="736.732px " y="519.558px ">d</tspan>ing</text>
        <text x="363.48px" y="554.576px" style="font-family:'LinBiolinumI', 'Linux Biolinum';font-style:italic;font-size:35.019px;fill:rgb(151,151,143);">the learnt global structur<tspan x="707.202px " y="554.576px ">e</tspan> of the</text>
        <text x="341.328px" y="589.595px" style="font-family:'LinBiolinumI', 'Linux Biolinum';font-style:italic;font-size:35.019px;fill:rgb(151,151,143);">Linke<tspan x="417.418px " y="589.595px ">d</tspan> Building Data Mo<tspan x="692.659px " y="589.595px ">d</tspan>el/Graph</text>
    </g>
    <g transform="matrix(0.832892,0,0,0.832892,184.674,1061.73)">
        <text x="339.43px" y="519.558px" style="font-family:'LinBiolinumI', 'Linux Biolinum';font-style:italic;font-size:35.019px;fill:rgb(88,88,88);">Linke<tspan x="415.52px " y="519.558px ">d</tspan> building contr<tspan x="635.361px " y="519.558px ">o</tspan>l information</text>
    </g>
    <g transform="matrix(0.832892,0,0,0.832892,696.592,2513.55)">
        <text x="473.828px" y="519.558px" style="font-family:'LinBiolinumI', 'Linux Biolinum';font-style:italic;font-size:35.019px;fill:rgb(88,88,88);">Pr<tspan x="503.973px 521.362px " y="519.558px 519.558px ">oo</tspan>f of concept</text>
    </g>
</svg>
